<svg xmlns="http://www.w3.org/2000/svg" xmlns:xlink="http://www.w3.org/1999/xlink" viewbox="0 0 32 32" width="32" height="32" stroke="currentColor" fill="currentColor"><path d="M31 16.5a7 7 0 0 0-4-6.3V9a6 6 0 0 0-11-3.3A6 6 0 0 0 5 9v1.2a7 7 0 0 0 0 12.6v0.2a6 6 0 0 0 11 3.3 6 6 0 0 0 11-3.3v-0.2a7 7 0 0 0 4-6.3ZM11 27a4 4 0 0 1-4-3.6 6.2 6.2 0 0 0 1 0.1h1a1 1 0 0 0 0-2h-1a5 5 0 0 1-1.7-9.7 1 1 0 0 0 0.7-1V9a4 4 0 0 1 8 0v9.5A5.9 5.9 0 0 0 11 17a1 1 0 0 0 0 2 4 4 0 0 1 0 8Zm13-5.5h-1a1 1 0 0 0 0 2h1a6.2 6.2 0 0 0 1-0.1A4 4 0 1 1 21 19a1 1 0 0 0 0-2 5.9 5.9 0 0 0-4 1.5V9a4 4 0 0 1 8 0v1.8a1 1 0 0 0 0.7 1A5 5 0 0 1 24 21.5ZM7.5 16a1 1 0 0 1 0-2 2.5 2.5 0 0 0 2.5-2.5v-1a1 1 0 0 1 2 0v1a4.5 4.5 0 0 1-4.5 4.5Zm18-1a1 1 0 0 1-1 1 4.5 4.5 0 0 1-4.5-4.5v-1a1 1 0 0 1 2 0v1a2.5 2.5 0 0 0 2.5 2.5 1 1 0 0 1 1 1Z"  /></svg>