<svg xmlns="http://www.w3.org/2000/svg" xmlns:xlink="http://www.w3.org/1999/xlink" viewbox="0 0 32 32" width="32" height="32" stroke="white" fill="white"><path d="M23.5 19a3.5 3.5 0 0 1-7 0c0-2 1.2-3 2.1-3.8s1.4-1.3 1.4-2.2a4 4 0 0 0-8 0 1 1 0 0 1-2 0 6 6 0 0 1 12 0c0 2-1.2 3-2.1 3.8S18.5 18 18.5 19a1.5 1.5 0 0 0 3 0 1 1 0 0 1 2 0ZM16 2a11 11 0 0 0-11 11c0 4.2 1.6 5.7 2.8 6.9 1 0.9 1.7 1.6 1.7 3.6a6.5 6.5 0 0 0 11.5 4.1 1 1 0 0 0-0.1-1.4 1 1 0 0 0-1.4 0.2A4.5 4.5 0 0 1 11.5 23.5c0-2.8-1.2-4-2.3-5S7 16.3 7 13a9 9 0 0 1 18 0 1 1 0 0 0 2 0 11 11 0 0 0-11-11Z"  /></svg>