<svg xmlns="http://www.w3.org/2000/svg" xmlns:xlink="http://www.w3.org/1999/xlink" viewbox="0 0 32 32" width="32" height="32" stroke="currentColor" fill="currentColor"><path d="M30.9 15.6c0-0.1-1.1-2.5-3.4-4.8C24.3 7.7 20.4 6 16 6S7.7 7.7 4.5 10.8C2.2 13.2 1.1 15.5 1.1 15.6a1 1 0 0 0 0 0.8c0 0.1 1.1 2.5 3.4 4.8 3.1 3.1 7.1 4.8 11.5 4.8s8.3-1.7 11.5-4.8c2.4-2.4 3.4-4.7 3.4-4.8a1 1 0 0 0 0-0.8ZM16 24c-3.9 0-7.2-1.4-10-4.2A16.3 16.3 0 0 1 3.1 16a16.3 16.3 0 0 1 2.9-3.9C8.8 9.4 12.2 8 16 8s7.2 1.4 10 4.2A16.3 16.3 0 0 1 28.9 16c-0.9 1.7-4.8 8-12.9 8Zm0-14a6 6 0 1 0 6 6 6 6 0 0 0-6-6Zm0 10a4 4 0 1 1 4-4 4 4 0 0 1-4 4Z"  /></svg>