<svg xmlns="http://www.w3.org/2000/svg" xmlns:xlink="http://www.w3.org/1999/xlink" viewbox="0 0 32 32" width="32" height="32" stroke="white" fill="white"><path d="M4.2 9.6A1 1 0 0 1 4.4 8.2a10.2 10.2 0 0 1 3.6-1.7c2-0.5 5.1-0.6 8.5 1.7 5.3 3.5 9.7 0.2 9.9 0a1 1 0 0 1 1.4 0.2 1 1 0 0 1-0.2 1.4 10.2 10.2 0 0 1-3.6 1.7 10.1 10.1 0 0 1-2.5 0.3c-1.8 0-3.9-0.5-6.1-2-5.3-3.5-9.7-0.2-9.8 0A1 1 0 0 1 4.2 9.6ZM26.4 15.2c-0.2 0.1-4.5 3.5-9.8 0-3.4-2.3-6.5-2.1-8.6-1.7A10.2 10.2 0 0 0 4.4 15.2a1 1 0 0 0-0.2 1.4 1 1 0 0 0 1.4 0.2c0.2-0.1 4.5-3.5 9.8 0 2.2 1.5 4.3 1.9 6.1 2a10.1 10.1 0 0 0 2.5-0.3 10.2 10.2 0 0 0 3.6-1.7 1 1 0 0 0 0.2-1.4 1 1 0 0 0-1.4-0.2Zm0 7c-0.2 0.1-4.5 3.5-9.8 0-3.4-2.3-6.5-2.1-8.6-1.7A10.2 10.2 0 0 0 4.4 22.2a1 1 0 0 0-0.2 1.4 1 1 0 0 0 1.4 0.2c0.2-0.1 4.5-3.5 9.8 0 2.2 1.5 4.3 1.9 6.1 2a10.3 10.3 0 0 0 6.1-2 1 1 0 0 0 0.2-1.4 1 1 0 0 0-1.4-0.2Z"  /></svg>